<?xml version="1.0" ?><!DOCTYPE svg  PUBLIC '-//W3C//DTD SVG 1.1//EN'  'http://www.w3.org/Graphics/SVG/1.1/DTD/svg11.dtd'><svg height="256px" style="shape-rendering:geometricPrecision; text-rendering:geometricPrecision; image-rendering:optimizeQuality; fill-rule:evenodd; clip-rule:evenodd" version="1.1" viewBox="0 0 256002 256004" width="256px" xml:space="preserve" xmlns="http://www.w3.org/2000/svg" xmlns:xlink="http://www.w3.org/1999/xlink"><defs><style type="text/css">
   <![CDATA[
    .fil2 {fill:none}
    .fil0 {fill:#2A9DD7}
    .fil1 {fill:#FFFFFE}
   ]]>
  </style></defs><g id="Layer_x0020_1"><path class="fil0" d="M125359 24291c510,2288 689,4705 724,7045l14 916 -841 362c-2993,1292 -6583,2894 -8755,5407 -3201,3702 -3414,9828 -3414,14462l0 9747 -9249 1866 0 -11664c0,-8603 1117,-18186 8450,-23785 3307,-2525 7391,-3983 11280,-5349l1454 -512 337 1505zm17387 -5497c3827,-572 8052,-1019 11913,-595 2914,319 5723,1165 7974,3115 2736,2371 4014,5832 4728,9288 1005,4868 1092,10356 1092,15317l0 5212 -9178 1881 0 -7091c0,-3354 88,-6930 -295,-10256 -230,-1984 -694,-4345 -2083,-5871 -2752,-3019 -9197,-2255 -12749,-1745l-1418 204 -140 -1425c-209,-2146 -529,-4284 -981,-6392l-305 -1426 1442 -216zm-65487 50613l-9247 1839 0 -33509c0,-11282 2681,-21986 12498,-28607 6120,-4128 13717,-5890 20822,-7501 10091,-2289 22933,-3338 30665,5031 6111,6618 7154,17140 7154,25737l0 24611 -9259 1873 0 -27045c0,-3076 -137,-6205 -771,-9221 -424,-2014 -1081,-4011 -2116,-5798 -1736,-3001 -4270,-4935 -7581,-5945 -5035,-1535 -11155,-723 -16174,454 -7069,1658 -15847,4110 -20814,9773 -4178,4765 -5177,11118 -5177,17253l0 31055z"/><polygon class="fil0" points="238216,240296 238216,64412 238216,62502 236408,61844 200601,48819 199135,48701 19988,84521 17784,84962 17784,87207 17784,217498 17784,219742 19988,220183 199135,256004 200601,255887 236408,242864 238216,242206 "/><polygon class="fil1" points="101532,146942 101532,110978 101532,107831 98419,108271 58667,113884 56304,114219 56304,116590 56304,146942 56304,149681 59042,149681 98793,149681 101532,149681 "/><polygon class="fil1" points="108011,110685 108011,146942 108011,149681 110750,149681 160862,149681 163601,149681 163601,146942 163601,103347 163601,100181 160467,100641 110354,107978 108011,108321 "/><polygon class="fil1" points="160862,155798 110750,155798 108011,155798 108011,158537 108011,197448 108011,199812 110354,200154 160467,207481 163601,207939 163601,204775 163601,158537 163601,155798 "/><polygon class="fil1" points="101532,197137 101532,158537 101532,155798 98793,155798 59042,155798 56304,155798 56304,158537 56304,191532 56304,193905 58667,194239 98419,199843 101532,200282 "/></g><rect class="fil2" height="256002" width="256002" y="1"/></svg>