<?xml version="1.0" ?><svg data-name="Layer 1" id="Layer_1" viewBox="0 0 32 32" xmlns="http://www.w3.org/2000/svg"><path d="M31,23H1a1,1,0,0,1-1-1V10A1,1,0,0,1,1,9H31a1,1,0,0,1,1,1V22A1,1,0,0,1,31,23ZM2,21H30V11H2Z"/><path d="M28,20H26a1,1,0,0,1,0-2h2a1,1,0,0,1,0,2Z"/><path d="M28,17H27a1,1,0,0,1,0-2h1a1,1,0,0,1,0,2Z"/><path d="M6,20H4a1,1,0,0,1,0-2H6a1,1,0,0,1,0,2Z"/><path d="M5,17H4a1,1,0,0,1,0-2H5a1,1,0,0,1,0,2Z"/><path d="M23,20H9a1,1,0,0,1,0-2H23a1,1,0,0,1,0,2Z"/><path d="M28,14a1,1,0,0,1-.38-.08,1.15,1.15,0,0,1-.33-.21,1,1,0,0,1-.21-1.09,1.15,1.15,0,0,1,.21-.33A1,1,0,0,1,29,13a1,1,0,0,1-.29.71,1.15,1.15,0,0,1-.33.21A1,1,0,0,1,28,14Z"/><path d="M25,14a1,1,0,0,1-.92-1.38,1.15,1.15,0,0,1,.21-.33l.15-.12a.76.76,0,0,1,.18-.09.6.6,0,0,1,.19-.06,1,1,0,0,1,.9.27A1.05,1.05,0,0,1,26,13a1,1,0,0,1-.08.38,1.15,1.15,0,0,1-.21.33A1,1,0,0,1,25,14Z"/><path d="M22,14a1,1,0,0,1-.38-.08.9.9,0,0,1-.54-.54A.84.84,0,0,1,21,13a1.05,1.05,0,0,1,.29-.71,1,1,0,0,1,.33-.21A1,1,0,0,1,22.2,12a.64.64,0,0,1,.18.06.76.76,0,0,1,.18.09l.15.12A1.05,1.05,0,0,1,23,13a.84.84,0,0,1-.08.38,1.15,1.15,0,0,1-.21.33A1,1,0,0,1,22,14Z"/><path d="M19,14a1,1,0,0,1-.38-.08,1.15,1.15,0,0,1-.33-.21A1,1,0,0,1,18,13a1,1,0,1,1,2,0,.84.84,0,0,1-.08.38.9.9,0,0,1-.54.54A1,1,0,0,1,19,14Z"/><path d="M16,14a1,1,0,0,1-.92-1.38,1.15,1.15,0,0,1,.21-.33,1,1,0,0,1,1.42,0,1.15,1.15,0,0,1,.21.33A1,1,0,0,1,16,14Z"/><path d="M13,14a1,1,0,0,1-.92-1.38,1.15,1.15,0,0,1,.21-.33,1,1,0,0,1,1.42,0,1.15,1.15,0,0,1,.21.33A1,1,0,0,1,13,14Z"/><path d="M10,14a1,1,0,0,1-.92-1.38,1.15,1.15,0,0,1,.21-.33l.15-.12.18-.09L9.8,12a1,1,0,0,1,.91.27A1.05,1.05,0,0,1,11,13a1,1,0,0,1-1,1Z"/><path d="M7,14a1,1,0,0,1-.71-.29,1.15,1.15,0,0,1-.21-.33A1,1,0,0,1,6,13a1,1,0,0,1,1.71-.71A1.05,1.05,0,0,1,8,13a.84.84,0,0,1-.08.38,1.15,1.15,0,0,1-.21.33A1,1,0,0,1,7,14Z"/><path d="M24,17a1,1,0,0,1-.71-.29,1.15,1.15,0,0,1-.21-.33.94.94,0,0,1,0-.76,1.15,1.15,0,0,1,.21-.33,1,1,0,0,1,.33-.21,1,1,0,0,1,1.09.21A1.05,1.05,0,0,1,25,16a.84.84,0,0,1-.08.38,1.15,1.15,0,0,1-.21.33A1,1,0,0,1,24,17Z"/><path d="M21,17a1,1,0,0,1-.71-.29,1.15,1.15,0,0,1-.21-.33.94.94,0,0,1,0-.76.9.9,0,0,1,.54-.54,1,1,0,0,1,.76,0,.93.93,0,0,1,.33.21A1.05,1.05,0,0,1,22,16a.84.84,0,0,1-.08.38.9.9,0,0,1-.54.54A1,1,0,0,1,21,17Z"/><path d="M18,17a1,1,0,0,1-.38-.08.9.9,0,0,1-.54-.54A.84.84,0,0,1,17,16a1.05,1.05,0,0,1,.29-.71.93.93,0,0,1,.33-.21,1,1,0,0,1,.76,0,.9.9,0,0,1,.54.54.94.94,0,0,1,0,.76,1.15,1.15,0,0,1-.21.33A1,1,0,0,1,18,17Z"/><path d="M14,17a1,1,0,0,1-.71-.29,1.15,1.15,0,0,1-.21-.33A.84.84,0,0,1,13,16a1.05,1.05,0,0,1,.29-.71.93.93,0,0,1,.33-.21,1,1,0,0,1,.76,0,.9.9,0,0,1,.54.54.94.94,0,0,1,0,.76,1.15,1.15,0,0,1-.21.33A1,1,0,0,1,14,17Z"/><path d="M11,17a1,1,0,0,1-.71-.29,1.15,1.15,0,0,1-.21-.33.94.94,0,0,1,0-.76.9.9,0,0,1,.54-.54,1,1,0,0,1,1.09.21A1.05,1.05,0,0,1,12,16a.84.84,0,0,1-.08.38,1.15,1.15,0,0,1-.21.33A1,1,0,0,1,11,17Z"/><path d="M8,17a1,1,0,0,1-.71-.29,1.15,1.15,0,0,1-.21-.33.94.94,0,0,1,0-.76,1.15,1.15,0,0,1,.21-.33,1,1,0,0,1,.33-.21,1,1,0,0,1,.76,0,1,1,0,0,1,.33.21A1.05,1.05,0,0,1,9,16a1,1,0,0,1-.08.38,1.15,1.15,0,0,1-.21.33A1,1,0,0,1,8,17Z"/><path d="M4,14a1,1,0,0,1-.38-.08,1.15,1.15,0,0,1-.33-.21A1,1,0,0,1,3,13a1.05,1.05,0,0,1,.29-.71A1,1,0,0,1,4.2,12l.18.06.18.09a1.58,1.58,0,0,1,.15.12A1.05,1.05,0,0,1,5,13a.84.84,0,0,1-.08.38,1.15,1.15,0,0,1-.21.33A1,1,0,0,1,4,14Z"/></svg>