<?xml version="1.0" ?><svg enable-background="new 0 0 192 192" id="coderwall" version="1.1" viewBox="0 0 192 192" xml:space="preserve" xmlns="http://www.w3.org/2000/svg" xmlns:xlink="http://www.w3.org/1999/xlink"><g><path d="M164,56c15.4375,0,28-12.5624,28-28S179.4375,0,164,0c-15.4377,0-28,12.5624-28,28S148.5623,56,164,56z M164,8   c11.0271,0,20,8.9728,20,20s-8.9729,20-20,20c-11.0273,0-20-8.9728-20-20S152.9727,8,164,8z"/><path d="M96,0C80.5623,0,68,12.5624,68,28s12.5623,28,28,28c15.4375,0,28-12.5624,28-28S111.4375,0,96,0z M96,48   c-11.0273,0-20-8.9728-20-20S84.9727,8,96,8c11.0271,0,20,8.9728,20,20S107.0271,48,96,48z"/><path d="M96,68c-15.4377,0-28,12.5624-28,28s12.5623,28,28,28c15.4375,0,28-12.5624,28-28S111.4375,68,96,68z M96,116   c-11.0273,0-20-8.9728-20-20s8.9727-20,20-20c11.0271,0,20,8.9728,20,20S107.0271,116,96,116z"/><path d="M28,0C12.5623,0,0,12.5624,0,28s12.5623,28,28,28c15.4375,0,28-12.5624,28-28S43.4375,0,28,0z M28,48   C16.9727,48,8,39.0272,8,28S16.9727,8,28,8c11.0271,0,20,8.9728,20,20S39.0271,48,28,48z"/><path d="M164,68c-15.4377,0-28,12.5624-28,28s12.5623,28,28,28c15.4375,0,28-12.5624,28-28S179.4375,68,164,68z M164,116   c-11.0273,0-20-8.9728-20-20s8.9727-20,20-20c11.0271,0,20,8.9728,20,20S175.0271,116,164,116z"/><path d="M164,136c-15.4377,0-28,12.5624-28,28s12.5623,28,28,28c15.4375,0,28-12.5624,28-28S179.4375,136,164,136z M164,184   c-11.0273,0-20-8.9728-20-20s8.9727-20,20-20c11.0271,0,20,8.9728,20,20S175.0271,184,164,184z"/></g></svg>