<?xml version="1.0" ?><svg data-name="Layer 1" id="Layer_1" viewBox="0 0 272 272" xmlns="http://www.w3.org/2000/svg"><defs><style>.cls-1{fill:#564c4d;}.cls-2{fill:#a0887e;}.cls-3{fill:#f54337;}</style></defs><title/><path class="cls-1" d="M187.75,200l-2,8H86.25l-2-8H80l16,64h80l16-64Zm-18,56h-67.5l-10-40h87.5Z"/><polygon class="cls-2" points="181.75 208 179.75 216 92.25 216 90.25 208 181.75 208"/><path class="cls-1" d="M72,184l8,32H192l8-32Zm113.75,24H86.25l-4-16h107.5Z"/><path class="cls-1" d="M140,72v1a16.32,16.32,0,0,1-3.22.44l-.78.84-.78-.84A16.32,16.32,0,0,1,132,73V72Z"/><polygon class="cls-1" points="136 79.48 140 83.79 140 184 132 184 132 83.79 136 79.48"/><path class="cls-1" d="M136,37.5A18,18,0,0,0,132,73a16.32,16.32,0,0,0,3.22.44l.78.84.78-.84A16.32,16.32,0,0,0,140,73a18,18,0,0,0-4-35.54Zm0,8a10,10,0,1,1-10,10A10,10,0,0,1,136,45.5Zm0-8A18,18,0,0,0,132,73a16.32,16.32,0,0,0,3.22.44l.78.84.78-.84A16.32,16.32,0,0,0,140,73a18,18,0,0,0-4-35.54Zm0,8a10,10,0,1,1-10,10A10,10,0,0,1,136,45.5Zm0-8A18,18,0,0,0,132,73a16.32,16.32,0,0,0,3.22.44l.78.84.78-.84A16.32,16.32,0,0,0,140,73a18,18,0,0,0-4-35.54Zm0,8a10,10,0,1,1-10,10A10,10,0,0,1,136,45.5Zm0-8A18,18,0,0,0,132,73a16.32,16.32,0,0,0,3.22.44l.78.84.78-.84A16.32,16.32,0,0,0,140,73a18,18,0,0,0-4-35.54Zm0,8a10,10,0,1,1-10,10A10,10,0,0,1,136,45.5Zm45,3.28a21,21,0,0,0-2.08-9.15,21.19,21.19,0,0,0-9.86-9.86h0a20.9,20.9,0,0,0-9.15-2.08,22.49,22.49,0,0,0-2.85.19,21.08,21.08,0,0,0-42.1,0,22.49,22.49,0,0,0-2.85-.19A21.1,21.1,0,0,0,101.8,67.2a20.59,20.59,0,0,0-2.1,6.43,19.68,19.68,0,0,0-.26,3.27,20.93,20.93,0,0,0,2,9.09,21.08,21.08,0,0,0,19,12A21.15,21.15,0,0,0,136,91.24a21.09,21.09,0,0,0,34.2-24A21.11,21.11,0,0,0,181,48.78ZM166.29,60.22,159.53,64l3.56,6.88a12.85,12.85,0,0,1,1.47,6,13.09,13.09,0,0,1-22.7,8.9l-1.86-2-4-4.31-4,4.31-1.86,2a13.1,13.1,0,0,1-15.24,2.93,13.18,13.18,0,0,1-6.19-6.19,13,13,0,0,1-1.27-5.64,12.15,12.15,0,0,1,.16-2,12.55,12.55,0,0,1,1.3-4L112.48,64l-6.77-3.8a13.09,13.09,0,0,1,6.39-24.52,13.76,13.76,0,0,1,1.78.12L122.45,37l.48-8.63a13.09,13.09,0,0,1,26.14,0l.49,8.62,8.55-1.15a14.07,14.07,0,0,1,1.8-.12,12.82,12.82,0,0,1,5.6,1.26l.07,0a13.16,13.16,0,0,1,6.13,6.13A12.84,12.84,0,0,1,173,48.78,13.14,13.14,0,0,1,166.29,60.22ZM136,37.5A18,18,0,0,0,132,73a16.32,16.32,0,0,0,3.22.44l.78.84.78-.84A16.32,16.32,0,0,0,140,73a18,18,0,0,0-4-35.54Zm0,8a10,10,0,1,1-10,10A10,10,0,0,1,136,45.5Zm0-8A18,18,0,0,0,132,73a16.32,16.32,0,0,0,3.22.44l.78.84.78-.84A16.32,16.32,0,0,0,140,73a18,18,0,0,0-4-35.54Zm0,8a10,10,0,1,1-10,10A10,10,0,0,1,136,45.5Zm0-8A18,18,0,0,0,132,73a16.32,16.32,0,0,0,3.22.44l.78.84.78-.84A16.32,16.32,0,0,0,140,73a18,18,0,0,0-4-35.54Zm0,8a10,10,0,1,1-10,10A10,10,0,0,1,136,45.5Z"/><path class="cls-3" d="M136,37.5A18,18,0,0,0,132,73a16.32,16.32,0,0,0,3.22.44L133.85,72l-3.71-4a13.42,13.42,0,0,0-3.23-2.54l-6.76-3.79,3.57-6.88a12.87,12.87,0,0,0,1.44-5.25l.48-8.63,8.57,1.14a12.39,12.39,0,0,0,3.58,0l8.57-1.14.48,8.63a12.72,12.72,0,0,0,1.44,5.25l3.57,6.88-6.76,3.79A13.42,13.42,0,0,0,141.86,68l-3.71,4-1.37,1.48A16.32,16.32,0,0,0,140,73a18,18,0,0,0-4-35.54Z"/><path class="cls-1" d="M136,37.5A18,18,0,0,0,132,73a16.32,16.32,0,0,0,3.22.44l.78,0,.78,0A16.32,16.32,0,0,0,140,73a18,18,0,0,0-4-35.54Zm0,8a10,10,0,1,1-10,10A10,10,0,0,1,136,45.5Z"/><path class="cls-1" d="M158.57,108.86c-8.7,5-15.3,11.5-18.57,17.56-2.49,4.61-3,9-1.14,12.29a8,8,0,0,0,1.14,1.52c5.57,6,20.36,4.54,34.57-3.66,15.3-8.84,19.71-29.86,19.71-29.86S173.87,100,158.57,108.86Zm12,20.78c-6.77,3.91-14.14,6.24-19.72,6.24-3.63,0-4.95-1-5.07-1.17-1-1.72,3.38-11.18,16.79-18.93,4-2.32,9.09-3.5,15.07-3.5a50.17,50.17,0,0,1,6.28.41C181.56,118.34,177.37,125.71,170.57,129.64Z"/></svg>