<?xml version="1.0" ?><svg id="Layer_1" style="enable-background:new 0 0 96 96;" version="1.1" viewBox="0 0 96 96" xml:space="preserve" xmlns="http://www.w3.org/2000/svg" xmlns:xlink="http://www.w3.org/1999/xlink"><path d="M4.1-0.1c-2.2,0-4,1.8-4,4v16.9c0,2.2,1.8,4,4,4C41.2,24.8,71,55.2,71,92.1c0,2.2,1.8,4,4,4h16.9c2.2,0,4-1.8,4-4  C96,41.4,54.9-0.1,4.1-0.1z M75,92.1C75,92.1,75,92.1,75,92.1C75,53,43.4,20.8,4.1,20.8l0-16.9C52.7,3.9,92,43.6,92,92.1L75,92.1z   M15.8,64.6C7.1,64.6,0,71.6,0,80.3S7.1,96,15.8,96c8.7,0,15.7-7,15.7-15.7S24.5,64.6,15.8,64.6z M15.8,92C9.3,92,4,86.8,4,80.3  c0-6.5,5.3-11.7,11.7-11.7c6.5,0,11.7,5.2,11.7,11.7C27.5,86.8,22.3,92,15.8,92z M4.1,29.9c-2.2,0-4,1.8-4,4v16.9c0,2.2,1.8,4,4,4  c9.9,0,19.2,3.9,26.2,10.9c7,7.1,10.9,16.4,10.9,26.4c0,2.2,1.8,4,4,4h16.9c2.2,0,4-1.8,4-4C66.1,57.9,38.4,29.9,4.1,29.9z   M45.2,92.1C45.1,92.1,45.1,92.1,45.2,92.1c0-11-4.3-21.4-12.1-29.2c-7.7-7.8-18.1-12.1-29-12.1l0-16.9c32.1,0,58,26.2,58,58.2  L45.2,92.1z"/></svg>